# xmcd CD database file
#
# Track frame offsets:
#	150
#	14874
#	32959
#	51510
#	65527
#	83390
#	101133
#	119431
#	134600
#	152481
#	167133
#
# Disc length: 2383 seconds
#
# Revision: 0
# Processed by: cddbd v1.5.2PL0 Copyright (c) Steve Scherf et al.
# Submitted via: CDex 1.51
#
DISCID=9a094d0b
DTITLE=Don Derby - Demo Sessions
DYEAR=2006
DGENRE=Country
TTITLE0=Soggy Southern Summer Days
TTITLE1=Its All For Charity
TTITLE2=There You Are
TTITLE3=Man In The Mirror
TTITLE4=How It Ends
TTITLE5=Saturday Sinner Sunday Saint
TTITLE6=What Do You Know About Pain
TTITLE7=Roll
TTITLE8=Sittin' At A River
TTITLE9=Its Over
TTITLE10=Good Morning World
EXTD=YEAR: 2006
EXTT0=
EXTT1=
EXTT2=
EXTT3=
EXTT4=
EXTT5=
EXTT6=
EXTT7=
EXTT8=
EXTT9=
EXTT10=
PLAYORDER=
